Coordinates
version=1
nRows=13
nColumns=36
inDegrees=yes

Units are S.I. units (second, meters, Newtons, ...)
If the header above contains a line with 'inDegrees', this indicates whether rotational values are in degrees (yes) or radians (no).

endheader
time	pelvis_tilt	pelvis_list	pelvis_rotation	pelvis_tx	pelvis_ty	pelvis_tz	hip_flexion_r	hip_adduction_r	hip_rotation_r	knee_angle_r	knee_angle_r_beta	ankle_angle_r	subtalar_angle_r	mtp_angle_r	hip_flexion_l	hip_adduction_l	hip_rotation_l	knee_angle_l	knee_angle_l_beta	ankle_angle_l	subtalar_angle_l	mtp_angle_l	lumbar_extension	lumbar_bending	lumbar_rotation	arm_flex_r	arm_add_r	arm_rot_r	elbow_flex_r	pro_sup_r	arm_flex_l	arm_add_l	arm_rot_l	elbow_flex_l	pro_sup_l
      8.15000000	    -12.36958744	      4.00191619	     -6.95715411	      0.80575488	      0.53865167	      0.16759615	     91.61809977	    -14.99937381	      6.99952760	    109.86143237	      1.91744372	     33.98987953	     -9.02428389	     -7.49999987	     93.52385461	    -10.67792508	      9.48469986	    108.72153459	      1.89754875	     32.30157791	      1.38133345	     -7.49999987	    -37.00483507	      2.38750112	     -0.81266383	     82.23547379	     -7.60626345	     33.86592863	     96.96364715	     96.91559333	     82.47206964	     -8.86900848	     35.32866011	    102.88667888	     74.90061882
      8.16666670	    -13.94434753	      4.08363734	     -6.41412502	      0.81079000	      0.52595089	      0.16623514	     95.12042304	    -15.26526141	      7.75150960	    111.71952437	      1.94987354	     33.97410343	     -8.62480149	     -7.49999987	     97.32921337	    -10.64081929	      9.88005402	    110.38161895	      1.92652268	     31.74020969	      2.24643018	     -7.49999987	    -39.12825721	      2.71322133	     -1.09086745	     84.69493918	     -7.25593096	     33.13572682	     97.50521919	     96.93663238	     85.94527412	     -9.01870667	     35.23780055	    102.96335875	     75.15884055
      8.18333330	    -15.55955928	      4.23865851	     -5.61243124	      0.81849123	      0.51203691	      0.16484750	     98.19740605	    -16.05611222	      8.55318477	    113.59227235	      1.98255916	     34.06895206	     -8.49579409	     -7.49999987	    100.72672745	    -10.38781028	     10.06191004	    112.13411069	      1.95710944	     31.61535396	      3.02830885	     -7.49999987	    -40.38785463	      2.89288000	     -1.43887427	     85.77350233	     -7.81025795	     32.01508567	     99.12959735	     96.89699965	     89.47402002	     -9.60169874	     37.21348565	    103.70004249	     77.68029175
      8.20000000	    -17.27821678	      4.07894948	     -4.89047765	      0.83510187	      0.49533313	      0.16144490	    100.95641957	    -17.23645930	      9.61107318	    116.21493966	      2.02833334	     34.53406637	     -8.09975479	     -7.49999987	    104.22616816	    -10.04610720	     10.65445712	    114.77977371	      2.00328497	     31.89612548	      3.54586350	     -7.49999987	    -40.31974398	      3.94489647	     -1.37195993	     86.23165413	     -8.19910990	     31.93650979	    100.57482115	     98.00510708	     89.84611079	    -10.03171013	     37.02277223	    105.66877878	     78.98427729
      8.21666670	    -18.91783628	      3.90232408	     -4.44037738	      0.84076616	      0.47940329	      0.15810096	    103.64106358	    -18.21021485	     10.82664456	    118.61344831	      2.07019521	     35.21473911	     -7.45221924	     -7.49999987	    107.45142142	     -9.76466739	     11.02964001	    117.37055869	      2.04850269	     33.01632833	      4.40805649	     -7.49999987	    -39.88636822	      4.73347943	     -1.31682750	     86.88113106	     -8.70337923	     32.23837885	    102.00987524	     96.82636567	     90.16843496	    -10.23949622	     36.99779076	    107.63788357	     79.82346924
      8.23333330	    -20.44735814	      3.52613845	     -3.92519258	      0.84068867	      0.46634290	      0.15961916	    106.21735775	    -18.98057240	     11.63749814	    120.80466710	      2.10843919	     35.91348425	     -7.17964924	     -7.49999987	    110.33708564	     -9.42859629	     11.69611118	    119.20051852	      2.08044152	     33.97900992	      4.90278343	     -7.49999987	    -39.34765520	      5.58565984	     -1.34324373	     87.97625010	     -8.75784403	     32.60237705	    102.96453974	     98.06841734	     90.62630706	    -10.65521482	     36.53833834	    109.69709223	     87.77776289
      8.25000000	    -21.52023986	      3.19800011	     -3.65662707	      0.84346873	      0.45753033	      0.15463566	    108.14473886	    -19.50276002	     12.38676218	    122.39252562	      2.13615255	     36.11142304	     -7.07821108	     -7.49999987	    112.50409422	     -9.09264081	     12.20187370	    120.84831353	      2.10920097	     34.89456577	      5.14165293	     -7.49999987	    -39.13878386	      6.15509623	     -1.24833367	     89.59992408	     -8.85535318	     32.43447978	    103.22665913	     98.09221207	     91.84710832	    -10.48398612	     36.62824357	    110.15485128	     87.86628147
      8.26666670	    -22.69897332	      3.00316053	     -3.55196966	      0.84433445	      0.45141438	      0.15608101	    109.94407652	    -19.53405640	     12.86070843	    123.46369394	      2.15484797	     36.36121746	     -6.40547272	     -7.49999987	    114.52244487	     -9.03336057	     12.65587677	    121.93639492	      2.12819157	     35.38102787	      5.58338985	     -7.49999987	    -38.59697280	      6.44451061	     -1.16312289	     91.26783247	     -9.42116006	     33.64129587	    104.00527242	     97.74741439	     92.85972493	    -10.85651185	     37.34174373	    111.20746291	     87.45424869
      8.28333330	    -23.38624533	      2.88661983	     -3.55271636	      0.84398333	      0.44720910	      0.15751085	    110.85239199	    -19.27607810	     12.91939857	    123.90165417	      2.16249181	     36.73467800	     -6.30841695	     -7.49999987	    115.47730516	     -9.05575088	     13.04798758	    122.41411468	      2.13652935	     35.89433190	      5.96721918	     -7.49999987	    -38.65265095	      6.43983580	     -1.03903025	     93.48732543	     -9.69536324	     34.18482241	    103.68730926	     95.91907649	     94.72281508	    -10.92273191	     37.69526211	    110.98816374	     86.07077400
      8.30000000	    -23.74570429	      2.90794003	     -3.74910977	      0.84529750	      0.44637585	      0.15693968	    111.31027595	    -18.72527409	     12.85883084	    124.16242411	      2.16704311	     36.43787066	     -6.86376673	     -7.49999987	    116.02518546	     -9.13921330	     13.39224021	    122.81650896	      2.14355246	     35.85864021	      5.85676462	     -7.49999987	    -38.88107982	      6.28125424	     -0.90067910	     95.60384605	     -9.77323432	     34.19752583	    102.46522523	     98.77193602	     96.56812754	    -10.98532638	     36.98037099	    109.71507245	     91.71801700
      8.31666670	    -24.61448796	      2.83948501	     -3.69556739	      0.86079008	      0.45375852	      0.15928604	    110.92210562	    -18.37232498	     12.59353947	    123.87909266	      2.16209804	     36.64674962	     -7.35334214	     -7.49999987	    115.76675214	     -9.12934565	     13.68387251	    122.59613778	      2.13970625	     36.20556504	      5.95223695	     -7.49999987	    -37.97015863	      6.32924042	     -0.83324272	     95.96405628	    -10.00446153	     34.29279755	    101.33358309	     98.64429016	     96.40651050	    -11.05715380	     36.59661131	    108.16791495	     91.68363279
      8.33333330	    -25.52494055	      2.96039873	     -3.52928725	      0.86719545	      0.46050099	      0.16235446	    109.78440058	    -18.00607044	     12.21464174	    122.90921660	      2.14517051	     36.72270169	     -8.59259352	     -7.49999987	    114.79906959	     -9.08877649	     13.50745957	    121.82416197	      2.12623273	     36.89308241	      5.85793866	     -7.49999987	    -36.61498474	      6.19858482	     -1.16646340	     94.66807573	    -10.06220855	     34.20137898	    100.08284785	     98.39386050	     95.45361315	    -11.56228630	     36.62399577	    106.43272855	     91.55862796
      8.35000000	    -26.39874112	      3.03869454	     -3.46435650	      0.87747120	      0.47879957	      0.16082334	    107.55768540	    -17.70973273	     11.44268453	    120.88966000	      2.10992260	     36.47461623	     -9.75560670	     -7.49999987	    112.58061298	     -8.86494656	     12.90774483	    120.03144519	      2.09494392	     37.24862829	      4.93428677	     -7.49999987	    -34.68549922	      6.14014369	     -2.45751226	     88.81766214	     -8.81737355	     32.58332648	     99.17866865	     95.67034678	     92.17274156	    -12.82488452	     36.71133676	    104.09995443	     89.09393864
